<svg xmlns="http://www.w3.org/2000/svg" viewBox="0 0 190.38 190.47"><defs><style>.cls-1{fill:#d8d8d8;}</style></defs><g id="Capa_2" data-name="Capa 2"><g id="Capa_2-2" data-name="Capa 2"><path class="cls-1" d="M160.26,183.78a19.91,19.91,0,0,1-3.16,6.69h33.28l-16.12-32H155.33C160,167.48,162.29,176.09,160.26,183.78Zm-130.61-.89c-3.46-13.13,5.91-29,18.1-45l-10.89,2L53.37,121.5A136.81,136.81,0,0,0,78.88,80.74L94.74,36.1l15.87,44.64a136.61,136.61,0,0,0,25.51,40.76l4.45,5H158L94.74,0,0,189.47H32.76A19.76,19.76,0,0,1,29.65,182.89Zm79,2.17c1.65-16.25,33.69-9.79,34.69,4.93,26.8-10.33-12-51.3-21.81-64.13,3.61.46,5.34.73,8.65,1.34a145.9,145.9,0,0,1-27.24-43.54c5.32,24.22,17.15,46.09,26.68,68.7,4.54,9.88,1.31,13.36-9,13.45-6.12-.57-14.59-4.72-14.77-11.91q-2-22.25-4-44.5l4.4,2.24A235,235,0,0,1,94.85,56.56,235,235,0,0,1,83.4,111.64l4.4-2.24q-2,22.47-4,44.95c-.77,6.83-8.47,11.05-14.73,11.46-10.79-.18-13.37-3.61-8.83-13.82,9.47-22.49,21.28-44.24,26.54-68.33A145.9,145.9,0,0,1,59.53,127.2c3.31-.61,5-.88,8.65-1.34C58.45,138.72,19.54,179.65,46.37,190c.93-14.75,33.38-21.17,34.69-4.93C90.27,184.91,99.44,184.91,108.64,185.06Z"/></g></g></svg>